<?xml version="1.0" encoding="utf-8"?>
<!-- Generator: Adobe Illustrator 15.1.0, SVG Export Plug-In  -->
<!DOCTYPE svg PUBLIC "-//W3C//DTD SVG 1.1//EN" "http://www.w3.org/Graphics/SVG/1.1/DTD/svg11.dtd" [
	<!ENTITY ns_flows "http://ns.adobe.com/Flows/1.0/">
]>
<svg version="1.1"
	 xmlns="http://www.w3.org/2000/svg" xmlns:xlink="http://www.w3.org/1999/xlink" xmlns:a="http://ns.adobe.com/AdobeSVGViewerExtensions/3.0/"
	 x="0px" y="0px" width="21px" height="27px" viewBox="0 0 21 27" overflow="visible" enable-background="new 0 0 21 27"
	 xml:space="preserve">
<defs>
</defs>
<g>
	<polygon fill="#FFFFFF" points="0.5,26.5 0.5,0.5 14.013,0.5 20.5,7.646 20.5,26.5 	"/>
	<path d="M13.792,1L20,7.839V26H1V1H13.792 M14.234,0H0v27h21V7.453L14.234,0L14.234,0z"/>
</g>
<path d="M4.33,12.427h1.257c1.625,0,2.229,0.706,2.229,2.523c0,2.346-1.177,2.552-2.229,2.552H4.33V12.427z M5.19,16.892h0.397
	c0.868,0,1.28-0.383,1.28-1.941c0-1.236-0.213-1.912-1.28-1.912H5.19V16.892z"/>
<path d="M8.585,14.965c0-1.479,0.463-2.618,2.052-2.618c1.582,0,2.052,1.14,2.052,2.618s-0.471,2.618-2.052,2.618
	C9.049,17.583,8.585,16.443,8.585,14.965z M10.637,16.973c0.868,0,1.104-0.927,1.104-2.008s-0.235-2.008-1.104-2.008
	c-0.875,0-1.103,0.927-1.103,2.008S9.762,16.973,10.637,16.973z"/>
<path d="M16.981,17.289c-0.243,0.103-0.772,0.294-1.383,0.294c-1.479,0-2.133-1.06-2.133-2.641c0-1.493,0.552-2.596,2.001-2.596
	c1.176,0,1.705,0.684,1.705,1.471h-0.955c0-0.397-0.089-0.86-0.75-0.86c-0.891,0-1.053,1.059-1.053,1.854
	c0,1.213,0.346,2.096,1.383,2.096c0.566,0,1.045-0.294,1.185-0.375V17.289z"/>
<polyline fill="none" stroke="#000000" points="13.561,0.174 13.561,8.541 21,8.541 "/>
</svg>
