<?xml version="1.0" encoding="utf-8"?>
<!-- Generator: Adobe Illustrator 15.1.0, SVG Export Plug-In  -->
<!DOCTYPE svg PUBLIC "-//W3C//DTD SVG 1.1//EN" "http://www.w3.org/Graphics/SVG/1.1/DTD/svg11.dtd" [
	<!ENTITY ns_flows "http://ns.adobe.com/Flows/1.0/">
]>
<svg version="1.1"
	 xmlns="http://www.w3.org/2000/svg" xmlns:xlink="http://www.w3.org/1999/xlink" xmlns:a="http://ns.adobe.com/AdobeSVGViewerExtensions/3.0/"
	 x="0px" y="0px" width="21px" height="27px" viewBox="0 0 21 27" overflow="visible" enable-background="new 0 0 21 27"
	 xml:space="preserve">
<defs>
</defs>
<g>
	<polygon fill="#FFFFFF" points="0.5,26.5 0.5,0.5 14.013,0.5 20.5,7.646 20.5,26.5 	"/>
	<path d="M13.792,1L20,7.839V26H1V1H13.792 M14.234,0H0v27h21V7.453L14.234,0L14.234,0z"/>
</g>
<path d="M5.08,12.427h1.309c0.787,0,1.78,0.118,1.78,1.464c0,1.214-1.074,1.449-1.78,1.449H5.94v2.162H5.08V12.427z M5.94,14.729
	h0.449c0.515,0,0.904-0.258,0.904-0.839c0-0.654-0.338-0.853-0.904-0.853H5.94V14.729z"/>
<path d="M9.042,12.427h1.257c1.625,0,2.229,0.706,2.229,2.523c0,2.346-1.177,2.552-2.229,2.552H9.042V12.427z M9.902,16.892h0.397
	c0.868,0,1.28-0.383,1.28-1.941c0-1.236-0.213-1.912-1.28-1.912H9.902V16.892z"/>
<path d="M13.467,12.427h2.867v0.655h-2.008v1.463h1.898V15.2h-1.898v2.302h-0.859V12.427z"/>
<polyline fill="none" stroke="#000000" points="13.561,0.174 13.561,8.542 21,8.542 "/>
</svg>
