<?xml version="1.0" encoding="utf-8"?>
<!-- Generator: Adobe Illustrator 15.1.0, SVG Export Plug-In  -->
<!DOCTYPE svg PUBLIC "-//W3C//DTD SVG 1.1//EN" "http://www.w3.org/Graphics/SVG/1.1/DTD/svg11.dtd" [
	<!ENTITY ns_flows "http://ns.adobe.com/Flows/1.0/">
]>
<svg version="1.1"
	 xmlns="http://www.w3.org/2000/svg" xmlns:xlink="http://www.w3.org/1999/xlink" xmlns:a="http://ns.adobe.com/AdobeSVGViewerExtensions/3.0/"
	 x="0px" y="0px" width="21px" height="27px" viewBox="0 0 21 27" overflow="visible" enable-background="new 0 0 21 27"
	 xml:space="preserve">
<defs>
</defs>
<polygon fill="#FFFFFF" points="0,0 0,27 21,27 21,7.453 14.234,0 "/>
<path d="M13.792,1L20,7.839V26H1V1H13.792 M14.234,0H0v27h21V7.453L14.234,0L14.234,0z"/>
<path d="M4.803,13.376h1.775c0.983,0,1.529,0.558,1.529,1.361c0,0.815-0.546,1.415-1.529,1.415H5.606v1.35H4.803V13.376z
	 M5.606,14.023v1.481h0.9c0.521,0,0.786-0.317,0.786-0.756c0-0.432-0.264-0.726-0.786-0.726H5.606z"/>
<path d="M9.075,13.376h1.469c1.445,0,2.188,0.87,2.188,2.063s-0.744,2.062-2.188,2.062H9.075V13.376z M9.878,14.042v2.794h0.612
	c1.032,0,1.416-0.647,1.416-1.396c0-0.75-0.384-1.397-1.416-1.397H9.878z"/>
<path d="M13.545,13.376h2.92v0.666h-2.117v1.266h1.691v0.659h-1.691v1.535h-0.803V13.376z"/>
<polygon points="21,9.042 13.061,9.042 13.061,0.174 14.061,0.174 14.061,8.042 21,8.042 "/>
</svg>
