<?xml version="1.0" encoding="utf-8"?>
<!-- Generator: Adobe Illustrator 15.1.0, SVG Export Plug-In  -->
<!DOCTYPE svg PUBLIC "-//W3C//DTD SVG 1.1//EN" "http://www.w3.org/Graphics/SVG/1.1/DTD/svg11.dtd" [
	<!ENTITY ns_flows "http://ns.adobe.com/Flows/1.0/">
]>
<svg version="1.1"
	 xmlns="http://www.w3.org/2000/svg" xmlns:xlink="http://www.w3.org/1999/xlink" xmlns:a="http://ns.adobe.com/AdobeSVGViewerExtensions/3.0/"
	 x="0px" y="0px" width="21px" height="27px" viewBox="0 0 21 27" overflow="visible" enable-background="new 0 0 21 27"
	 xml:space="preserve">
<defs>
</defs>
<g>
	<polygon fill="#FFFFFF" points="0.5,26.5 0.5,0.5 14.013,0.5 20.5,7.646 20.5,26.5 	"/>
	<path d="M13.792,1L20,7.839V26H1V1H13.792 M14.234,0H0v27h21V7.453L14.234,0L14.234,0z"/>
</g>
<path d="M5.778,16.848l2.317-3.766H5.903v-0.655h3.192v0.655l-2.316,3.766h2.427v0.654H5.778V16.848z"/>
<path d="M10.07,12.427h0.861v5.075H10.07V12.427z"/>
<path d="M12.209,12.427h1.31c0.786,0,1.78,0.118,1.78,1.464c0,1.214-1.074,1.449-1.78,1.449H13.07v2.162h-0.861V12.427z
	 M13.07,14.729h0.448c0.515,0,0.904-0.258,0.904-0.839c0-0.654-0.339-0.853-0.904-0.853H13.07V14.729z"/>
<polyline fill="none" stroke="#000000" points="13.561,0.174 13.561,8.541 21,8.541 "/>
</svg>
