<?xml version="1.0" encoding="utf-8"?>
<!-- Generator: Adobe Illustrator 15.1.0, SVG Export Plug-In  -->
<!DOCTYPE svg PUBLIC "-//W3C//DTD SVG 1.1//EN" "http://www.w3.org/Graphics/SVG/1.1/DTD/svg11.dtd" [
	<!ENTITY ns_flows "http://ns.adobe.com/Flows/1.0/">
]>
<svg version="1.1"
	 xmlns="http://www.w3.org/2000/svg" xmlns:xlink="http://www.w3.org/1999/xlink" xmlns:a="http://ns.adobe.com/AdobeSVGViewerExtensions/3.0/"
	 x="0px" y="0px" width="21px" height="27px" viewBox="0 0 21 27" overflow="visible" enable-background="new 0 0 21 27"
	 xml:space="preserve">
<defs>
</defs>
<g>
	<polygon fill="#FFFFFF" points="0.5,26.5 0.5,0.5 14.013,0.5 20.5,7.646 20.5,26.5 	"/>
	<path d="M13.792,1L20,7.839V26H1V1H13.792 M14.234,0H0v27h21V7.453L14.234,0L14.234,0z"/>
</g>
<polyline fill="none" stroke="#000000" points="13.561,0.174 13.561,8.541 21,8.541 "/>
<path d="M4.27,13.375h2.92v0.666H5.073v1.266h1.691v0.659H5.073v1.535H4.27V13.375z"/>
<path d="M8.073,13.375h0.804v4.126H8.073V13.375z"/>
<path d="M10.03,13.375h0.803v3.448h1.972v0.678H10.03V13.375z"/>
<path d="M13.684,13.375h2.992v0.666h-2.189v1.037h1.764v0.636h-1.764v1.121h2.244v0.666h-3.047V13.375z"/>
</svg>
