<?xml version="1.0" encoding="utf-8"?>
<!-- Generator: Adobe Illustrator 15.1.0, SVG Export Plug-In  -->
<!DOCTYPE svg PUBLIC "-//W3C//DTD SVG 1.1//EN" "http://www.w3.org/Graphics/SVG/1.1/DTD/svg11.dtd" [
	<!ENTITY ns_flows "http://ns.adobe.com/Flows/1.0/">
]>
<svg version="1.1"
	 xmlns="http://www.w3.org/2000/svg" xmlns:xlink="http://www.w3.org/1999/xlink" xmlns:a="http://ns.adobe.com/AdobeSVGViewerExtensions/3.0/"
	 x="0px" y="0px" width="21px" height="27px" viewBox="0 0 21 27" overflow="visible" enable-background="new 0 0 21 27"
	 xml:space="preserve">
<defs>
</defs>
<g>
	<polygon fill="#FFFFFF" points="0.5,26.5 0.5,0.5 14.013,0.5 20.5,7.646 20.5,26.5 	"/>
	<path d="M13.792,1L20,7.839V26H1V1H13.792 M14.234,0H0v27h21V7.453L14.234,0L14.234,0z"/>
</g>
<polyline fill="none" stroke="#000000" points="13.561,0.174 13.561,8.541 21,8.541 "/>
<path d="M1.849,13.375h1.47c1.444,0,2.188,0.87,2.188,2.063s-0.744,2.062-2.188,2.062h-1.47V13.375z M2.652,14.041v2.794h0.612
	c1.031,0,1.415-0.647,1.415-1.396c0-0.75-0.384-1.397-1.415-1.397H2.652z"/>
<path d="M8.237,13.304c1.254,0,2.1,0.905,2.1,2.135c0,1.229-0.846,2.135-2.1,2.135c-1.277,0-2.104-0.906-2.104-2.135
	C6.133,14.209,6.96,13.304,8.237,13.304z M8.237,16.884c0.762,0,1.271-0.612,1.271-1.445c0-0.834-0.51-1.445-1.271-1.445
	c-0.768,0-1.277,0.605-1.277,1.445C6.96,16.277,7.47,16.884,8.237,16.884z"/>
<path d="M13.021,13.304c1.02,0,1.672,0.558,1.828,1.433h-0.803c-0.133-0.479-0.48-0.743-1.025-0.743c-0.756,0-1.23,0.594-1.23,1.445
	c0,0.833,0.486,1.445,1.23,1.445c0.581,0,0.893-0.265,1.025-0.744h0.803c-0.156,0.876-0.821,1.434-1.841,1.434
	c-1.271,0-2.045-0.906-2.045-2.135C10.963,14.221,11.767,13.304,13.021,13.304z"/>
<path d="M16.765,15.396l-1.398-2.021h0.924l0.947,1.422l0.93-1.422h0.888l-1.373,2.009l1.47,2.117h-0.924l-1.02-1.523l-1.002,1.523
	h-0.887L16.765,15.396z"/>
</svg>
