<?xml version="1.0" encoding="utf-8"?>
<!-- Generator: Adobe Illustrator 15.1.0, SVG Export Plug-In  -->
<!DOCTYPE svg PUBLIC "-//W3C//DTD SVG 1.1//EN" "http://www.w3.org/Graphics/SVG/1.1/DTD/svg11.dtd" [
	<!ENTITY ns_flows "http://ns.adobe.com/Flows/1.0/">
]>
<svg version="1.1"
	 xmlns="http://www.w3.org/2000/svg" xmlns:xlink="http://www.w3.org/1999/xlink" xmlns:a="http://ns.adobe.com/AdobeSVGViewerExtensions/3.0/"
	 x="0px" y="0px" width="21px" height="27px" viewBox="0 0 21 27" overflow="visible" enable-background="new 0 0 21 27"
	 xml:space="preserve">
<defs>
</defs>
<g>
	<polygon fill="#FFFFFF" points="0.5,26.5 0.5,0.5 14.013,0.5 20.5,7.646 20.5,26.5 	"/>
	<path d="M13.792,1L20,7.839V26H1V1H13.792 M14.234,0H0v27h21V7.453L14.234,0L14.234,0z"/>
</g>
<path d="M4.122,13.376h1.469c1.445,0,2.188,0.87,2.188,2.063s-0.744,2.062-2.188,2.062H4.122V13.376z M4.925,14.042v2.794h0.612
	c1.032,0,1.416-0.647,1.416-1.396c0-0.75-0.384-1.397-1.416-1.397H4.925z"/>
<path d="M10.511,13.305c1.253,0,2.099,0.905,2.099,2.135c0,1.229-0.845,2.135-2.099,2.135c-1.277,0-2.105-0.906-2.105-2.135
	C8.406,14.21,9.233,13.305,10.511,13.305z M10.511,16.885c0.762,0,1.271-0.612,1.271-1.445c0-0.834-0.51-1.445-1.271-1.445
	c-0.768,0-1.277,0.605-1.277,1.445C9.233,16.278,9.743,16.885,10.511,16.885z"/>
<path d="M15.293,13.305c1.02,0,1.673,0.558,1.829,1.433h-0.804c-0.132-0.479-0.48-0.743-1.025-0.743
	c-0.756,0-1.229,0.594-1.229,1.445c0,0.833,0.485,1.445,1.229,1.445c0.582,0,0.894-0.265,1.025-0.744h0.804
	c-0.156,0.876-0.821,1.434-1.841,1.434c-1.271,0-2.045-0.906-2.045-2.135C13.236,14.222,14.039,13.305,15.293,13.305z"/>
<polyline fill="none" stroke="#000000" points="13.561,0.174 13.561,8.541 21,8.541 "/>
</svg>
