<?xml version="1.0" encoding="utf-8"?>
<!-- Generator: Adobe Illustrator 15.1.0, SVG Export Plug-In  -->
<!DOCTYPE svg PUBLIC "-//W3C//DTD SVG 1.1//EN" "http://www.w3.org/Graphics/SVG/1.1/DTD/svg11.dtd" [
	<!ENTITY ns_flows "http://ns.adobe.com/Flows/1.0/">
]>
<svg version="1.1"
	 xmlns="http://www.w3.org/2000/svg" xmlns:xlink="http://www.w3.org/1999/xlink" xmlns:a="http://ns.adobe.com/AdobeSVGViewerExtensions/3.0/"
	 x="0px" y="0px" width="21px" height="27px" viewBox="0 0 21 27" overflow="visible" enable-background="new 0 0 21 27"
	 xml:space="preserve">
<defs>
</defs>
<g>
	<polygon fill="#FFFFFF" points="0.5,26.5 0.5,0.5 14.013,0.5 20.5,7.646 20.5,26.5 	"/>
	<path d="M13.792,1L20,7.839V26H1V1H13.792 M14.234,0H0v27h21V7.453L14.234,0L14.234,0z"/>
</g>
<polyline fill="none" stroke="#000000" points="13.561,0.174 13.561,8.541 21,8.541 "/>
<path d="M1.995,12.427h1.258c1.625,0,2.229,0.706,2.229,2.523c0,2.346-1.177,2.552-2.229,2.552H1.995V12.427z M2.856,16.892h0.396
	c0.868,0,1.279-0.383,1.279-1.941c0-1.236-0.213-1.912-1.279-1.912H2.856V16.892z"/>
<path d="M6.141,14.965c0-1.479,0.464-2.618,2.052-2.618c1.582,0,2.053,1.14,2.053,2.618s-0.471,2.618-2.053,2.618
	C6.604,17.583,6.141,16.443,6.141,14.965z M8.192,16.973c0.868,0,1.104-0.927,1.104-2.008s-0.235-2.008-1.104-2.008
	c-0.875,0-1.104,0.927-1.104,2.008S7.317,16.973,8.192,16.973z"/>
<path d="M14.427,17.289c-0.243,0.103-0.773,0.294-1.383,0.294c-1.479,0-2.133-1.06-2.133-2.641c0-1.493,0.551-2.596,2-2.596
	c1.177,0,1.706,0.684,1.706,1.471h-0.956c0-0.397-0.088-0.86-0.75-0.86c-0.891,0-1.052,1.059-1.052,1.854
	c0,1.213,0.346,2.096,1.383,2.096c0.565,0,1.044-0.294,1.185-0.375V17.289z"/>
<path d="M16.409,14.825l-1.434-2.398h0.941l0.978,1.582l0.948-1.582H18.8l-1.428,2.398l1.633,2.677h-0.971l-1.14-1.868l-1.14,1.868
	h-0.979L16.409,14.825z"/>
</svg>
