<?xml version="1.0" encoding="utf-8"?>
<!-- Generator: Adobe Illustrator 15.1.0, SVG Export Plug-In  -->
<!DOCTYPE svg PUBLIC "-//W3C//DTD SVG 1.1//EN" "http://www.w3.org/Graphics/SVG/1.1/DTD/svg11.dtd" [
	<!ENTITY ns_flows "http://ns.adobe.com/Flows/1.0/">
]>
<svg version="1.1"
	 xmlns="http://www.w3.org/2000/svg" xmlns:xlink="http://www.w3.org/1999/xlink" xmlns:a="http://ns.adobe.com/AdobeSVGViewerExtensions/3.0/"
	 x="0px" y="0px" width="21px" height="27px" viewBox="0 0 21 27" overflow="visible" enable-background="new 0 0 21 27"
	 xml:space="preserve">
<defs>
</defs>
<g>
	<polygon fill="#FFFFFF" points="0.5,26.5 0.5,0.5 14.013,0.5 20.5,7.646 20.5,26.5 	"/>
	<path d="M13.792,1L20,7.839V26H1V1H13.792 M14.234,0H0v27h21V7.453L14.234,0L14.234,0z"/>
</g>
<path d="M5.865,13.376h3.166v0.468l-2.201,2.999H9.02v0.659H5.775v-0.468l2.207-2.998H5.865V13.376z"/>
<path d="M9.909,13.376h0.803v4.126H9.909V13.376z"/>
<path d="M11.865,13.376h1.775c0.982,0,1.529,0.558,1.529,1.361c0,0.815-0.547,1.415-1.529,1.415h-0.973v1.35h-0.803V13.376z
	 M12.668,14.023v1.481h0.9c0.521,0,0.785-0.317,0.785-0.756c0-0.432-0.264-0.726-0.785-0.726H12.668z"/>
<polyline fill="none" stroke="#000000" points="13.561,0.174 13.561,8.541 21,8.541 "/>
</svg>
