<?xml version="1.0" encoding="utf-8"?>
<!-- Generator: Adobe Illustrator 15.1.0, SVG Export Plug-In  -->
<!DOCTYPE svg PUBLIC "-//W3C//DTD SVG 1.1//EN" "http://www.w3.org/Graphics/SVG/1.1/DTD/svg11.dtd" [
	<!ENTITY ns_flows "http://ns.adobe.com/Flows/1.0/">
]>
<svg version="1.1"
	 xmlns="http://www.w3.org/2000/svg" xmlns:xlink="http://www.w3.org/1999/xlink" xmlns:a="http://ns.adobe.com/AdobeSVGViewerExtensions/3.0/"
	 x="0px" y="0px" width="313px" height="313px" viewBox="31.3 31.3 313 313"
	 overflow="visible" enable-background="new 31.3 31.3 313 313" xml:space="preserve">
<defs>
</defs>
<rect fill="#00529F" width="375.6" height="375.6"/>
<path fill="#EEEDE4" d="M157.353,113.195c3.345,0,5.352-0.39,5.352-4.571V79.359h-3.401c-5.687,0-6.522,2.284-7.08,5.406h-1.393
	l0.389-7.581h27.93l0.388,7.581h-1.394c-0.335-3.513-2.005-5.406-7.469-5.406h-3.01v29.265c0,4.181,2.008,4.571,5.353,4.571v1.115
	h-15.665V113.195z"/>
<path fill="#EEEDE4" d="M178.822,113.362c2.342,0,4.235-0.5,4.235-4.125V81.476c0-3.288-2.621-3.455-4.235-3.622v-0.948l8.584-1.339
	v19.901h0.112c0.78-2.061,3.288-7.355,8.864-7.355c5.853,0,6.407,3.23,6.407,8.414v12.71c0,3.625,1.896,4.125,4.239,4.125v0.948
	h-12.82v-0.948c2.284,0,4.234-0.5,4.234-4.125V97.754c0-4.793-0.11-6.968-3.737-6.968c-3.284,0-7.3,6.354-7.3,11.652v6.798
	c0,3.625,1.896,4.125,4.236,4.125v0.948h-12.82V113.362z"/>
<path fill="#EEEDE4" d="M223.87,96.749c0-2.952-1-6.8-5.296-6.8c-4.236,0-5.965,4.738-5.965,6.8H223.87z M228.108,113.864
	c-1.341,0.502-3.235,1.004-6.637,1.004c-8.64,0-13.489-4.74-13.489-14.103c0-8.14,3.288-12.656,11.317-12.656
	c5.018,0,9.53,2.788,9.53,9.254v1.226h-16.221c0,4.682,2.285,14.215,11.595,14.215c1.282,0,2.79-0.167,3.904-0.726V113.864z"/>
<path fill="#EEEDE4" d="M81.996,171.021c3.011,0,4.852-0.39,4.852-4.571v-25.755c0-4.182-1.841-4.569-4.852-4.569v-1.115h14.663
	v1.115c-3.066,0-4.852,0.388-4.852,4.569V151.9h15.776v-11.205c0-4.182-1.841-4.569-4.85-4.569v-1.115h14.661v1.115
	c-3.067,0-4.852,0.388-4.852,4.569v25.755c0,4.181,1.785,4.571,4.852,4.571v1.115h-14.661v-1.115c3.009,0,4.85-0.39,4.85-4.571
	v-12.375H91.807v12.375c0,4.181,1.785,4.571,4.852,4.571v1.115H81.996V171.021z"/>
<path fill="#EEEDE4" d="M134.627,154.575c0-2.953-1.001-6.801-5.295-6.801c-4.237,0-5.964,4.738-5.964,6.801H134.627z
	 M138.865,171.689c-1.34,0.501-3.235,1.003-6.636,1.003c-8.641,0-13.49-4.738-13.49-14.103c0-8.14,3.288-12.656,11.317-12.656
	c5.017,0,9.531,2.788,9.531,9.254v1.226h-16.22c0,4.683,2.284,14.216,11.594,14.216c1.282,0,2.788-0.167,3.903-0.726V171.689z"/>
<path fill="#EEEDE4" d="M161.615,171.801c-1.505,0.558-3.344,0.891-5.965,0.891c-9.811,0-14.159-5.517-14.159-14.158
	c0-7.414,3.458-12.598,12.041-12.598c3.792,0,8.751,1.112,8.751,5.184c0,1.617-1.169,2.619-2.619,2.619
	c-2.119,0-2.566-1.727-3.011-3.567c-0.279-1.226-1.28-2.397-3.847-2.397c-3.791,0-6.689,2.788-6.689,8.976
	c0,7.079,4.625,13.88,12.374,13.88c1.061,0,2.12-0.225,3.123-0.446V171.801z"/>
<path fill="#EEEDE4" d="M162.678,171.187c2.342,0,4.236-0.5,4.236-4.125v-27.761c0-3.288-2.563-3.455-4.236-3.623v-0.947
	l8.583-1.339v24.417l6.301-7.359c0.613-0.724,1.115-1.282,1.115-1.784c0-0.948-0.725-1.226-2.509-1.226v-0.946h11.093v0.946
	c-3.623,0-5.073,1.448-7.079,3.847l-5.072,5.852l8.303,10.146c2.285,2.842,3.512,3.901,6.748,3.901v0.948h-12.768v-0.948
	c1.729,0,2.677-0.278,2.677-1.114c0-0.67-0.502-1.339-1.115-2.063l-7.581-9.476h-0.114v8.528c0,3.625,1.896,4.125,4.237,4.125v0.948
	h-12.821V171.187z"/>
<path fill="#EEEDE4" d="M204.494,152.735c-0.445-1.84-1.729-4.961-5.688-4.961c-2.062,0-4.626,0.892-4.626,3.511
	c0,3.179,4.793,4.795,7.916,6.579c2.843,1.561,5.187,3.122,5.187,7.304c0,4.793-4.072,7.524-10.26,7.524
	c-3.12,0-5.687-0.503-7.191-1.002l-0.389-6.188h1.394c0.556,1.95,1.896,5.352,6.576,5.352c3.624,0,5.521-2.621,5.521-4.517
	c0-3.956-7.136-5.908-10.2-8.194c-2.229-1.617-2.901-3.01-2.901-5.296c0-5.183,4.683-6.911,9.255-6.911
	c2.285,0,5.186,0.556,6.41,0.948l0.391,5.853H204.494z"/>
<path fill="#EEEDE4" d="M229.696,171.801c-1.504,0.558-3.344,0.891-5.964,0.891c-9.812,0-14.16-5.517-14.16-14.158
	c0-7.414,3.457-12.598,12.04-12.598c3.791,0,8.754,1.112,8.754,5.184c0,1.617-1.169,2.619-2.62,2.619
	c-2.117,0-2.565-1.727-3.011-3.567c-0.278-1.226-1.283-2.397-3.847-2.397c-3.79,0-6.689,2.788-6.689,8.976
	c0,7.079,4.627,13.88,12.377,13.88c1.058,0,2.117-0.225,3.12-0.446V171.801z"/>
<path fill="#EEEDE4" d="M230.927,171.187c2.343,0,4.236-0.5,4.236-4.125v-27.761c0-3.288-2.622-3.455-4.236-3.623v-0.947
	l8.583-1.339v19.901h0.112c0.78-2.061,3.29-7.358,8.864-7.358c5.853,0,6.412,3.233,6.412,8.417v12.71
	c0,3.625,1.896,4.125,4.234,4.125v0.948h-12.82v-0.948c2.287,0,4.234-0.5,4.234-4.125v-11.483c0-4.792-0.11-6.967-3.732-6.967
	c-3.288,0-7.305,6.354-7.305,11.652v6.798c0,3.625,1.896,4.125,4.236,4.125v0.948h-12.819V171.187z"/>
<path fill="#EEEDE4" d="M275.978,154.575c0-2.953-1.004-6.801-5.298-6.801c-4.238,0-5.965,4.738-5.965,6.801H275.978z
	 M280.212,171.689c-1.337,0.501-3.23,1.003-6.635,1.003c-8.638,0-13.491-4.738-13.491-14.103c0-8.14,3.29-12.656,11.321-12.656
	c5.014,0,9.531,2.788,9.531,9.254v1.226h-16.224c0,4.683,2.289,14.216,11.597,14.216c1.283,0,2.786-0.167,3.9-0.726V171.689z"/>
<path fill="#EEEDE4" d="M281.944,171.187c2.342,0,4.237-0.5,4.237-4.125v-15.217c0-3.346-2.563-3.513-4.237-3.624v-0.948
	l8.586-1.337v5.964h0.111c1.061-2.788,3.009-5.964,7.248-5.964c1.227,0,2.788,0.891,2.788,2.563c0,1.618-1.172,2.621-2.677,2.621
	c-1.674,0-2.397-1.338-3.177-1.338c-1.006,0-4.294,2.229-4.294,8.863v8.417c0,3.625,1.895,4.125,4.235,4.125v0.948h-12.821V171.187z
	"/>
<path fill="#EEEDE4" d="M67.052,228.846c3.011,0,4.852-0.39,4.852-4.572v-25.755c0-4.181-1.84-4.569-4.852-4.569v-1.116h25.253
	l0.39,6.801h-1.394c-1.004-3.622-2.73-4.626-6.467-4.626h-4.907c-2.896,0-3.064,0.613-3.064,4.681v9.757h7.19
	c3.736,0,5.073-0.837,5.073-4.683h1.17v11.54h-1.17c0-3.125-1.337-4.686-5.073-4.686h-7.19v12.656c0,4.183,1.896,4.572,5.518,4.572
	v1.113h-15.33V228.846z"/>
<path fill="#EEEDE4" d="M107.473,228.679c5.575,0,6.688-6.912,6.688-11.541c0-4.627-1.113-11.538-6.688-11.538
	s-6.688,6.911-6.688,11.538C100.785,221.767,101.898,228.679,107.473,228.679 M95.822,217.138c0-8.361,4.517-13.378,11.651-13.378
	c7.136,0,11.65,5.017,11.65,13.378c0,8.36-4.514,13.382-11.65,13.382C100.339,230.52,95.822,225.498,95.822,217.138"/>
<path fill="#EEEDE4" d="M140.426,223.829h-0.11c-0.725,1.84-2.398,6.69-8.363,6.69c-4.682,0-7.135-3.234-7.135-8.419v-12.43
	c0-3.344-2.563-3.513-4.235-3.625V205.1l8.586-1.338v17.113c0,4.625,1.561,6.8,4.458,6.8c3.624,0,6.8-5.239,6.8-10.312v-7.692
	c0-3.344-2.562-3.513-4.237-3.625V205.1l8.584-1.338v20.849c0,3.346,2.564,3.511,4.238,3.624v0.947l-8.586,1.338V223.829z"/>
<path fill="#EEEDE4" d="M149.628,229.011c2.342,0,4.238-0.501,4.238-4.125v-15.217c0-3.344-2.621-3.511-4.238-3.625v-0.946
	l8.585-1.337v7.357h0.111c0.78-2.062,3.291-7.357,8.811-7.357c5.905,0,6.463,3.23,6.463,8.418v12.707
	c0,3.624,1.896,4.125,4.238,4.125v0.947h-12.823v-0.947c2.341,0,4.237-0.501,4.237-4.125v-11.483c0-4.793-0.055-6.967-3.736-6.967
	c-3.286,0-7.301,6.301-7.301,11.599v6.852c0,3.624,1.896,4.125,4.237,4.125v0.947h-12.823V229.011z"/>
<path fill="#EEEDE4" d="M190.333,228.456c4.516,0,5.797-6.581,5.797-11.316c0-5.294-1.506-11.315-5.797-11.315
	c-4.739,0-6.021,6.635-6.021,11.315C184.312,221.989,185.204,228.456,190.333,228.456 M196.13,226.395h-0.109
	c-0.504,1.502-3.292,4.125-6.414,4.125c-7.749,0-10.256-6.58-10.256-13.38s2.507-13.379,10.256-13.379
	c3.513,0,5.633,2.732,6.414,4.293h0.109v-10.927c0-3.289-2.619-3.454-4.236-3.622v-0.947l8.583-1.341v33.394
	c0,3.346,2.562,3.511,4.239,3.624v0.947l-8.586,1.338V226.395z"/>
<path fill="#EEEDE4" d="M221.054,217.584c-2.621,0.056-9.757,0.558-9.757,5.743c0,2.898,1.896,4.851,3.792,4.851
	c3.622,0,5.965-3.513,5.965-7.303V217.584z M229.303,230.018c-0.668,0.166-2.06,0.502-4.07,0.502c-3.229,0-4.179-1.674-4.179-4.071
	h-0.111c-1.73,2.51-4.127,4.071-7.917,4.071c-3.845,0-6.688-2.677-6.688-6.299c0-8.084,10.479-8.084,14.717-8.478v-2.117
	c0-3.902-0.056-8.026-4.737-8.026c-3.458,0-3.904,1.449-3.904,3.234c0,2.284-1.67,2.896-2.618,2.896
	c-1.509,0-2.676-1.002-2.676-2.508c0-3.623,5.404-5.462,9.251-5.462c7.64,0,9.031,3.681,9.031,8.864v13.823
	c0,1.95,0.671,2.62,2.399,2.62c0.5,0,1.004-0.11,1.503-0.223V230.018z"/>
<path fill="#EEEDE4" d="M245.141,230.295c-0.893,0.112-1.783,0.225-2.676,0.225c-8.417,0-8.864-2.064-8.864-8.308v-16.051h-4.516
	v-1.841c4.516,0,7.413-2.286,7.413-8.363h1.453v8.363h7.189v1.841h-7.189v17.612c0,4.239,1.896,4.907,4.961,4.907
	c0.723,0,1.445-0.168,2.229-0.28V230.295z"/>
<path fill="#EEEDE4" d="M248.488,195.452c0-1.783,1.396-3.178,3.179-3.178c1.782,0,3.176,1.395,3.176,3.178
	c0,1.785-1.394,3.18-3.176,3.18C249.884,198.632,248.488,197.237,248.488,195.452 M245.426,229.011c2.338,0,4.234-0.501,4.234-4.125
	v-15.217c0-3.344-2.564-3.511-4.234-3.625v-0.946l8.585-1.337v21.125c0,3.624,1.896,4.125,4.234,4.125v0.947h-12.819V229.011z"/>
<path fill="#EEEDE4" d="M271.46,228.679c5.573,0,6.688-6.912,6.688-11.541c0-4.627-1.115-11.538-6.688-11.538
	s-6.688,6.911-6.688,11.538C264.772,221.767,265.887,228.679,271.46,228.679 M259.809,217.138c0-8.361,4.516-13.378,11.651-13.378
	c7.135,0,11.65,5.017,11.65,13.378c0,8.36-4.516,13.382-11.65,13.382C264.324,230.52,259.809,225.498,259.809,217.138"/>
<path fill="#EEEDE4" d="M285.734,229.011c2.344,0,4.238-0.501,4.238-4.125v-15.217c0-3.344-2.621-3.511-4.238-3.625v-0.946
	l8.585-1.337v7.357h0.111c0.779-2.062,3.292-7.357,8.812-7.357c5.903,0,6.465,3.23,6.465,8.418v12.707
	c0,3.624,1.896,4.125,4.235,4.125v0.947H301.12v-0.947c2.341,0,4.237-0.501,4.237-4.125v-11.483c0-4.793-0.055-6.967-3.733-6.967
	c-3.288,0-7.305,6.301-7.305,11.599v6.852c0,3.624,1.896,4.125,4.236,4.125v0.947h-12.821V229.011z"/>
<path fill="#EEEDE4" d="M64.095,286.836c2.342,0,4.238-0.5,4.238-4.124v-18.729h-4.238v-1.841h4.238v-2.45
	c0-7.361,2.005-10.649,10.535-10.649c2.735,0,6.134,1.06,6.134,3.344c0,1.731-1.227,2.679-2.676,2.679
	c-3.512,0-1.838-4.185-5.408-4.185c-4.237,0-4.237,3.737-4.237,7.918v3.344h7.527v1.841H72.68v18.729
	c0,3.624,1.896,4.124,4.237,4.124v0.948H64.095V286.836z"/>
<path fill="#EEEDE4" d="M92.528,286.503c5.574,0,6.687-6.91,6.687-11.54c0-4.628-1.112-11.538-6.687-11.538
	c-5.577,0-6.689,6.91-6.689,11.538C85.839,279.593,86.952,286.503,92.528,286.503 M80.876,274.963
	c0-8.358,4.516-13.376,11.652-13.376c7.135,0,11.65,5.018,11.65,13.376c0,8.361-4.515,13.382-11.65,13.382
	C85.393,288.345,80.876,283.324,80.876,274.963"/>
<path fill="#EEEDE4" d="M106.584,286.836c2.341,0,4.237-0.5,4.237-4.124v-15.218c0-3.344-2.564-3.511-4.237-3.625v-0.946
	l8.584-1.335v5.963h0.111c1.06-2.787,3.009-5.963,7.247-5.963c1.225,0,2.786,0.89,2.786,2.562c0,1.614-1.169,2.62-2.677,2.62
	c-1.671,0-2.396-1.34-3.177-1.34c-1.002,0-4.291,2.23-4.291,8.864v8.417c0,3.624,1.894,4.124,4.236,4.124v0.948h-12.82V286.836z"/>
<path fill="#EEEDE4" d="M166.461,286.836c-2.731,1.007-5.853,1.509-9.979,1.509c-11.146,0-16.498-8.475-16.498-20.349
	c0-10.315,3.344-17.894,15.272-17.894c4.459,0,8.251,0.893,10.704,1.561l0.501,8.751h-1.394c-0.725-3.12-2.954-8.136-9.867-8.136
	c-8.976,0-9.699,9.529-9.699,15.272c0,7.19,1.559,18.284,13.769,18.284c3.734,0,5.742-0.836,7.19-1.396V286.836z"/>
<path fill="#EEEDE4" d="M168.032,286.836c2.341,0,4.234-0.5,4.234-4.124v-27.76c0-3.289-2.621-3.458-4.234-3.622v-0.947l8.582-1.34
	v19.899h0.114c0.78-2.061,3.288-7.354,8.864-7.354c5.854,0,6.408,3.229,6.408,8.415v12.709c0,3.624,1.896,4.124,4.237,4.124v0.948
	h-12.82v-0.948c2.287,0,4.234-0.5,4.234-4.124v-11.482c0-4.793-0.11-6.967-3.735-6.967c-3.285,0-7.302,6.354-7.302,11.647v6.802
	c0,3.624,1.896,4.124,4.238,4.124v0.948h-12.82V286.836z"/>
<path fill="#EEEDE4" d="M199.533,253.278c0-1.784,1.394-3.176,3.177-3.176s3.175,1.392,3.175,3.176c0,1.787-1.392,3.177-3.175,3.177
	S199.533,255.065,199.533,253.278 M196.468,286.836c2.339,0,4.235-0.5,4.235-4.124v-15.218c0-3.344-2.565-3.511-4.235-3.625v-0.946
	l8.586-1.335v21.124c0,3.624,1.895,4.124,4.234,4.124v0.948h-12.82V286.836z"/>
<path fill="#EEEDE4" d="M209.294,286.836c2.342,0,4.234-0.5,4.234-4.124v-27.76c0-3.289-2.562-3.458-4.234-3.622v-0.947l8.583-1.34
	v33.669c0,3.624,1.896,4.124,4.237,4.124v0.948h-12.82V286.836z"/>
<path fill="#EEEDE4" d="M235.161,286.281c4.514,0,5.799-6.58,5.799-11.318c0-5.292-1.507-11.313-5.799-11.313
	c-4.739,0-6.021,6.635-6.021,11.313C229.141,279.814,230.032,286.281,235.161,286.281 M240.96,284.221h-0.111
	c-0.502,1.502-3.291,4.124-6.41,4.124c-7.752,0-10.259-6.58-10.259-13.382c0-6.801,2.507-13.375,10.259-13.375
	c3.511,0,5.63,2.73,6.41,4.291h0.111v-10.927c0-3.289-2.622-3.458-4.237-3.622v-0.947l8.583-1.34v33.393
	c0,3.346,2.563,3.511,4.24,3.622v0.946l-8.586,1.341V284.221z"/>
<path fill="#EEEDE4" d="M249.938,286.836c2.343,0,4.239-0.5,4.239-4.124v-15.218c0-3.344-2.565-3.511-4.239-3.625v-0.946
	l8.586-1.335v5.963h0.11c1.062-2.787,3.01-5.963,7.248-5.963c1.227,0,2.787,0.89,2.787,2.562c0,1.614-1.171,2.62-2.675,2.62
	c-1.676,0-2.398-1.34-3.177-1.34c-1.007,0-4.294,2.23-4.294,8.864v8.417c0,3.624,1.893,4.124,4.234,4.124v0.948h-12.82V286.836z"/>
<path fill="#EEEDE4" d="M284.172,270.226c0-2.953-1.003-6.801-5.294-6.801c-4.241,0-5.966,4.738-5.966,6.801H284.172z
	 M288.408,287.343c-1.337,0.499-3.231,1.002-6.634,1.002c-8.64,0-13.491-4.737-13.491-14.104c0-8.142,3.291-12.654,11.318-12.654
	c5.016,0,9.533,2.786,9.533,9.252v1.228h-16.223c0,4.684,2.287,14.214,11.594,14.214c1.285,0,2.787-0.165,3.902-0.725V287.343z"/>
<path fill="#EEEDE4" d="M290.362,286.836c2.342,0,4.237-0.5,4.237-4.124v-15.218c0-3.344-2.617-3.511-4.237-3.625v-0.946
	l8.588-1.335v7.354h0.109c0.78-2.061,3.289-7.354,8.812-7.354c5.904,0,6.466,3.229,6.466,8.415v12.709
	c0,3.624,1.895,4.124,4.236,4.124v0.948h-12.822v-0.948c2.339,0,4.235-0.5,4.235-4.124v-11.482c0-4.793-0.058-6.967-3.733-6.967
	c-3.291,0-7.303,6.299-7.303,11.596v6.854c0,3.624,1.896,4.124,4.235,4.124v0.948h-12.823V286.836z"/>
</svg>
