<?xml version="1.0" encoding="utf-8"?>
<!-- Generator: Adobe Illustrator 15.1.0, SVG Export Plug-In  -->
<!DOCTYPE svg PUBLIC "-//W3C//DTD SVG 1.1//EN" "http://www.w3.org/Graphics/SVG/1.1/DTD/svg11.dtd" [
	<!ENTITY ns_flows "http://ns.adobe.com/Flows/1.0/">
]>
<svg version="1.1"
	 xmlns="http://www.w3.org/2000/svg" xmlns:xlink="http://www.w3.org/1999/xlink" xmlns:a="http://ns.adobe.com/AdobeSVGViewerExtensions/3.0/"
	 x="0px" y="0px" width="250px" height="250px" viewBox="0 0 250 250" overflow="visible" enable-background="new 0 0 250 250"
	 xml:space="preserve">
<defs>
</defs>
<g>
	<defs>
		<rect id="SVGID_1_" width="250" height="250"/>
	</defs>
	<clipPath id="SVGID_2_">
		<use xlink:href="#SVGID_1_"  overflow="visible"/>
	</clipPath>
	<path clip-path="url(#SVGID_2_)" fill="#FFFFFF" d="M250,250H0V0h250V250z M6.048,243.951h237.903V6.048H6.048V243.951z"/>
	<path clip-path="url(#SVGID_2_)" fill="#FFFFFF" d="M100.682,65.412c2.671,0,4.275-0.312,4.275-3.651V38.385h-2.717
		c-4.543,0-5.21,1.825-5.655,4.319h-1.113l0.312-6.055h22.307l0.311,6.055h-1.113c-0.267-2.806-1.601-4.319-5.966-4.319h-2.404
		v23.375c0,3.339,1.604,3.651,4.274,3.651v0.89h-12.511V65.412z"/>
	<path clip-path="url(#SVGID_2_)" fill="#FFFFFF" d="M117.829,65.545c1.871,0,3.384-0.401,3.384-3.296V40.076
		c0-2.625-2.094-2.759-3.384-2.893v-0.757l6.855-1.069v15.896h0.091c0.624-1.647,2.627-5.876,7.08-5.876
		c4.674,0,5.117,2.582,5.117,6.722v10.15c0,2.895,1.514,3.296,3.387,3.296v0.757h-10.24v-0.757c1.825,0,3.383-0.401,3.383-3.296
		v-9.171c0-3.829-0.089-5.566-2.985-5.566c-2.623,0-5.832,5.076-5.832,9.308v5.429c0,2.895,1.515,3.296,3.385,3.296v0.757h-10.24
		V65.545z"/>
	<path clip-path="url(#SVGID_2_)" fill="#FFFFFF" d="M153.81,52.276c0-2.358-0.8-5.433-4.23-5.433c-3.382,0-4.763,3.785-4.763,5.433
		H153.81z M157.195,65.945c-1.071,0.402-2.583,0.802-5.301,0.802c-6.901,0-10.773-3.785-10.773-11.264
		c0-6.501,2.627-10.108,9.038-10.108c4.008,0,7.612,2.226,7.612,7.392v0.98h-12.955c0,3.739,1.825,11.354,9.26,11.354
		c1.026,0,2.229-0.134,3.119-0.579V65.945z"/>
	<path clip-path="url(#SVGID_2_)" fill="#FFFFFF" d="M40.492,111.598c2.406,0,3.875-0.311,3.875-3.651V87.377
		c0-3.34-1.47-3.65-3.875-3.65v-0.891h11.712v0.891c-2.45,0-3.875,0.31-3.875,3.65v8.949h12.601v-8.949c0-3.34-1.47-3.65-3.873-3.65
		v-0.891h11.709v0.891c-2.448,0-3.875,0.31-3.875,3.65v20.569c0,3.341,1.427,3.651,3.875,3.651v0.89H57.057v-0.89
		c2.403,0,3.873-0.311,3.873-3.651v-9.883H48.329v9.883c0,3.341,1.425,3.651,3.875,3.651v0.89H40.492V111.598z"/>
	<path clip-path="url(#SVGID_2_)" fill="#FFFFFF" d="M82.529,98.463c0-2.359-0.799-5.433-4.229-5.433
		c-3.384,0-4.763,3.784-4.763,5.433H82.529z M85.915,112.133c-1.07,0.4-2.582,0.801-5.3,0.801c-6.902,0-10.775-3.784-10.775-11.264
		c0-6.501,2.626-10.108,9.039-10.108c4.007,0,7.614,2.226,7.614,7.392v0.979H73.537c0,3.738,1.825,11.354,9.26,11.354
		c1.025,0,2.227-0.135,3.118-0.579V112.133z"/>
	<path clip-path="url(#SVGID_2_)" fill="#FFFFFF" d="M104.087,112.221c-1.203,0.446-2.672,0.712-4.765,0.712
		c-7.837,0-11.31-4.406-11.31-11.309c0-5.921,2.761-10.061,9.616-10.061c3.03,0,6.991,0.888,6.991,4.14
		c0,1.292-0.934,2.092-2.092,2.092c-1.692,0-2.051-1.379-2.405-2.849c-0.223-0.979-1.021-1.915-3.072-1.915
		c-3.027,0-5.343,2.227-5.343,7.168c0,5.654,3.694,11.087,9.884,11.087c0.848,0,1.693-0.179,2.495-0.356V112.221z"/>
	<path clip-path="url(#SVGID_2_)" fill="#FFFFFF" d="M104.936,111.73c1.87,0,3.383-0.399,3.383-3.295V86.263
		c0-2.626-2.048-2.76-3.383-2.894v-0.757l6.855-1.068v19.503l5.032-5.878c0.49-0.579,0.891-1.024,0.891-1.426
		c0-0.757-0.579-0.979-2.004-0.979v-0.756h8.86v0.756c-2.894,0-4.052,1.156-5.654,3.072l-4.051,4.674l6.632,8.105
		c1.825,2.269,2.805,3.114,5.391,3.114v0.757h-10.198v-0.757c1.382,0,2.138-0.223,2.138-0.89c0-0.534-0.4-1.069-0.891-1.648
		l-6.055-7.568h-0.091v6.812c0,2.896,1.514,3.295,3.385,3.295v0.757h-10.24V111.73z"/>
	<path clip-path="url(#SVGID_2_)" fill="#FFFFFF" d="M138.334,96.994c-0.355-1.47-1.38-3.964-4.542-3.964
		c-1.646,0-3.695,0.713-3.695,2.805c0,2.538,3.828,3.829,6.323,5.254c2.27,1.247,4.143,2.493,4.143,5.835
		c0,3.827-3.253,6.01-8.195,6.01c-2.494,0-4.542-0.402-5.744-0.801l-0.312-4.943h1.114c0.445,1.558,1.514,4.274,5.253,4.274
		c2.895,0,4.408-2.093,4.408-3.606c0-3.161-5.698-4.72-8.147-6.547c-1.779-1.29-2.316-2.403-2.316-4.229
		c0-4.141,3.74-5.521,7.393-5.521c1.825,0,4.141,0.445,5.119,0.757l0.312,4.676H138.334z"/>
	<path clip-path="url(#SVGID_2_)" fill="#FFFFFF" d="M158.463,112.221c-1.201,0.446-2.671,0.712-4.763,0.712
		c-7.836,0-11.311-4.406-11.311-11.309c0-5.921,2.762-10.061,9.617-10.061c3.028,0,6.991,0.888,6.991,4.14
		c0,1.292-0.934,2.092-2.093,2.092c-1.69,0-2.049-1.379-2.404-2.849c-0.223-0.979-1.024-1.915-3.071-1.915
		c-3.027,0-5.344,2.227-5.344,7.168c0,5.654,3.695,11.087,9.886,11.087c0.846,0,1.692-0.179,2.491-0.356V112.221z"/>
	<path clip-path="url(#SVGID_2_)" fill="#FFFFFF" d="M159.445,111.73c1.873,0,3.385-0.399,3.385-3.295V86.263
		c0-2.626-2.093-2.76-3.385-2.894v-0.757l6.856-1.068v15.895h0.09c0.624-1.646,2.629-5.877,7.08-5.877
		c4.675,0,5.121,2.583,5.121,6.723v10.151c0,2.896,1.514,3.295,3.383,3.295v0.757h-10.24v-0.757c1.827,0,3.383-0.399,3.383-3.295
		v-9.171c0-3.829-0.089-5.565-2.981-5.565c-2.626,0-5.835,5.075-5.835,9.308v5.429c0,2.896,1.515,3.295,3.384,3.295v0.757h-10.24
		V111.73z"/>
	<path clip-path="url(#SVGID_2_)" fill="#FFFFFF" d="M195.429,98.463c0-2.359-0.802-5.433-4.231-5.433
		c-3.384,0-4.764,3.784-4.764,5.433H195.429z M198.812,112.133c-1.068,0.4-2.58,0.801-5.3,0.801
		c-6.898,0-10.775-3.784-10.775-11.264c0-6.501,2.626-10.108,9.041-10.108c4.005,0,7.613,2.226,7.613,7.392v0.979h-12.958
		c0,3.738,1.826,11.354,9.263,11.354c1.025,0,2.225-0.135,3.116-0.579V112.133z"/>
	<path clip-path="url(#SVGID_2_)" fill="#FFFFFF" d="M200.195,111.73c1.87,0,3.385-0.399,3.385-3.295V96.282
		c0-2.672-2.048-2.806-3.385-2.895v-0.757l6.857-1.069v4.766h0.089c0.848-2.228,2.403-4.766,5.788-4.766
		c0.98,0,2.228,0.712,2.228,2.049c0,1.291-0.936,2.093-2.138,2.093c-1.337,0-1.914-1.069-2.537-1.069c-0.804,0-3.43,1.781-3.43,7.08
		v6.722c0,2.896,1.513,3.295,3.383,3.295v0.757h-10.24V111.73z"/>
	<path clip-path="url(#SVGID_2_)" fill="#FFFFFF" d="M28.557,157.784c2.405,0,3.875-0.311,3.875-3.652v-20.571
		c0-3.338-1.47-3.65-3.875-3.65v-0.89h20.17l0.312,5.431h-1.114c-0.801-2.892-2.181-3.695-5.164-3.695h-3.92
		c-2.313,0-2.447,0.49-2.447,3.739v7.794h5.744c2.984,0,4.051-0.669,4.051-3.74h0.936v9.216h-0.936c0-2.494-1.067-3.741-4.051-3.741
		h-5.744v10.108c0,3.342,1.514,3.652,4.407,3.652v0.889H28.557V157.784z"/>
	<path clip-path="url(#SVGID_2_)" fill="#FFFFFF" d="M60.841,157.65c4.453,0,5.341-5.521,5.341-9.218
		c0-3.695-0.889-9.216-5.341-9.216s-5.342,5.521-5.342,9.216C55.5,152.129,56.389,157.65,60.841,157.65 M51.536,148.433
		c0-6.679,3.608-10.685,9.306-10.685c5.699,0,9.305,4.006,9.305,10.685s-3.606,10.688-9.305,10.688
		C55.144,159.121,51.536,155.111,51.536,148.433"/>
	<path clip-path="url(#SVGID_2_)" fill="#FFFFFF" d="M87.162,153.777h-0.09c-0.577,1.469-1.914,5.344-6.679,5.344
		c-3.74,0-5.699-2.583-5.699-6.725v-9.928c0-2.67-2.048-2.806-3.383-2.896v-0.755l6.856-1.068v13.668
		c0,3.696,1.248,5.432,3.562,5.432c2.894,0,5.432-4.184,5.432-8.236v-6.144c0-2.67-2.048-2.806-3.385-2.896v-0.755l6.855-1.068
		V154.4c0,2.673,2.05,2.805,3.385,2.896v0.757l-6.855,1.068V153.777z"/>
	<path clip-path="url(#SVGID_2_)" fill="#FFFFFF" d="M94.512,157.916c1.871,0,3.385-0.399,3.385-3.294v-12.154
		c0-2.671-2.093-2.806-3.385-2.897v-0.755l6.857-1.068v5.878h0.089c0.623-1.646,2.628-5.878,7.037-5.878
		c4.717,0,5.162,2.581,5.162,6.725v10.15c0,2.895,1.515,3.294,3.387,3.294v0.757h-10.242v-0.757c1.869,0,3.384-0.399,3.384-3.294
		v-9.173c0-3.829-0.045-5.565-2.984-5.565c-2.626,0-5.832,5.032-5.832,9.264v5.475c0,2.895,1.515,3.294,3.385,3.294v0.757H94.512
		V157.916z"/>
	<path clip-path="url(#SVGID_2_)" fill="#FFFFFF" d="M127.023,157.473c3.605,0,4.631-5.256,4.631-9.038
		c0-4.229-1.204-9.038-4.631-9.038c-3.784,0-4.81,5.299-4.81,9.038C122.214,152.309,122.927,157.473,127.023,157.473
		 M131.654,155.827h-0.089c-0.401,1.198-2.63,3.294-5.122,3.294c-6.19,0-8.191-5.256-8.191-10.687
		c0-5.433,2.001-10.688,8.191-10.688c2.806,0,4.499,2.183,5.122,3.431h0.089v-8.729c0-2.626-2.093-2.76-3.384-2.894v-0.757
		l6.855-1.069v26.672c0,2.672,2.048,2.805,3.387,2.895v0.757l-6.858,1.068V155.827z"/>
	<path clip-path="url(#SVGID_2_)" fill="#FFFFFF" d="M151.561,148.789c-2.094,0.044-7.793,0.446-7.793,4.587
		c0,2.314,1.514,3.875,3.029,3.875c2.892,0,4.764-2.807,4.764-5.833V148.789z M158.149,158.72c-0.533,0.134-1.646,0.401-3.251,0.401
		c-2.58,0-3.338-1.337-3.338-3.252h-0.09c-1.381,2.004-3.297,3.252-6.323,3.252c-3.069,0-5.342-2.139-5.342-5.032
		c0-6.455,8.368-6.455,11.755-6.77v-1.691c0-3.117-0.044-6.412-3.782-6.412c-2.765,0-3.12,1.158-3.12,2.584
		c0,1.824-1.334,2.314-2.091,2.314c-1.204,0-2.138-0.801-2.138-2.005c0-2.894,4.317-4.362,7.39-4.362
		c6.102,0,7.213,2.939,7.213,7.08v11.042c0,1.558,0.536,2.094,1.917,2.094c0.399,0,0.801-0.09,1.2-0.179V158.72z"/>
	<path clip-path="url(#SVGID_2_)" fill="#FFFFFF" d="M170.8,158.941c-0.715,0.091-1.425,0.18-2.138,0.18
		c-6.722,0-7.08-1.648-7.08-6.636v-12.821h-3.606v-1.471c3.606,0,5.922-1.824,5.922-6.679h1.159v6.679h5.743v1.471h-5.743v14.067
		c0,3.387,1.515,3.92,3.963,3.92c0.575,0,1.154-0.135,1.78-0.224V158.941z"/>
	<path clip-path="url(#SVGID_2_)" fill="#FFFFFF" d="M173.474,131.112c0-1.426,1.114-2.539,2.539-2.539
		c1.423,0,2.536,1.113,2.536,2.539c0,1.427-1.113,2.539-2.536,2.539C174.588,133.651,173.474,132.539,173.474,131.112
		 M171.026,157.916c1.868,0,3.383-0.399,3.383-3.294v-12.154c0-2.671-2.049-2.806-3.383-2.897v-0.755l6.857-1.068v16.875
		c0,2.895,1.515,3.294,3.383,3.294v0.757h-10.24V157.916z"/>
	<path clip-path="url(#SVGID_2_)" fill="#FFFFFF" d="M191.82,157.65c4.453,0,5.342-5.521,5.342-9.218
		c0-3.695-0.889-9.216-5.342-9.216c-4.45,0-5.342,5.521-5.342,9.216C186.479,152.129,187.37,157.65,191.82,157.65 M182.515,148.433
		c0-6.679,3.607-10.685,9.306-10.685c5.699,0,9.307,4.006,9.307,10.685s-3.607,10.688-9.307,10.688
		C186.122,159.121,182.515,155.111,182.515,148.433"/>
	<path clip-path="url(#SVGID_2_)" fill="#FFFFFF" d="M203.223,157.916c1.871,0,3.386-0.399,3.386-3.294v-12.154
		c0-2.671-2.094-2.806-3.386-2.897v-0.755l6.858-1.068v5.878h0.089c0.622-1.646,2.627-5.878,7.036-5.878
		c4.717,0,5.165,2.581,5.165,6.725v10.15c0,2.895,1.514,3.294,3.382,3.294v0.757h-10.242v-0.757c1.871,0,3.385-0.399,3.385-3.294
		v-9.173c0-3.829-0.043-5.565-2.981-5.565c-2.628,0-5.833,5.032-5.833,9.264v5.475c0,2.895,1.514,3.294,3.384,3.294v0.757h-10.242
		V157.916z"/>
	<path clip-path="url(#SVGID_2_)" fill="#FFFFFF" d="M26.194,204.102c1.871,0,3.385-0.398,3.385-3.294v-14.959h-3.385v-1.47h3.385
		v-1.958c0-5.88,1.602-8.504,8.413-8.504c2.185,0,4.9,0.846,4.9,2.67c0,1.382-0.979,2.139-2.138,2.139
		c-2.804,0-1.468-3.342-4.318-3.342c-3.384,0-3.384,2.985-3.384,6.324v2.671h6.012v1.47h-6.012v14.959
		c0,2.896,1.514,3.294,3.384,3.294v0.757H26.194V204.102z"/>
	<path clip-path="url(#SVGID_2_)" fill="#FFFFFF" d="M48.904,203.837c4.453,0,5.341-5.519,5.341-9.219
		c0-3.694-0.888-9.215-5.341-9.215c-4.454,0-5.342,5.521-5.342,9.215C43.562,198.318,44.451,203.837,48.904,203.837 M39.598,194.618
		c0-6.676,3.607-10.683,9.306-10.683c5.7,0,9.306,4.007,9.306,10.683c0,6.679-3.606,10.688-9.306,10.688
		C43.206,205.307,39.598,201.297,39.598,194.618"/>
	<path clip-path="url(#SVGID_2_)" fill="#FFFFFF" d="M60.131,204.102c1.87,0,3.384-0.398,3.384-3.294v-12.153
		c0-2.671-2.048-2.806-3.384-2.896v-0.755l6.857-1.067v4.764h0.089c0.846-2.226,2.403-4.764,5.788-4.764
		c0.979,0,2.225,0.711,2.225,2.048c0,1.288-0.933,2.093-2.137,2.093c-1.335,0-1.914-1.072-2.537-1.072
		c-0.801,0-3.428,1.782-3.428,7.082v6.722c0,2.896,1.512,3.294,3.383,3.294v0.757h-10.24V204.102z"/>
	<path clip-path="url(#SVGID_2_)" fill="#FFFFFF" d="M107.957,204.102c-2.182,0.805-4.675,1.205-7.972,1.205
		c-8.903,0-13.177-6.769-13.177-16.253c0-8.238,2.671-14.291,12.198-14.291c3.562,0,6.59,0.713,8.55,1.247l0.4,6.988h-1.113
		c-0.58-2.491-2.359-6.498-7.881-6.498c-7.17,0-7.747,7.611-7.747,12.199c0,5.742,1.244,14.603,10.996,14.603
		c2.983,0,4.588-0.667,5.745-1.113V204.102z"/>
	<path clip-path="url(#SVGID_2_)" fill="#FFFFFF" d="M109.212,204.102c1.869,0,3.382-0.398,3.382-3.294v-22.172
		c0-2.626-2.094-2.763-3.382-2.893v-0.758l6.854-1.068v15.894h0.091c0.624-1.646,2.626-5.875,7.08-5.875
		c4.676,0,5.119,2.579,5.119,6.722v10.15c0,2.896,1.514,3.294,3.384,3.294v0.757h-10.24v-0.757c1.827,0,3.383-0.398,3.383-3.294
		v-9.17c0-3.828-0.089-5.566-2.982-5.566c-2.625,0-5.834,5.076-5.834,9.306v5.431c0,2.896,1.514,3.294,3.386,3.294v0.757h-10.239
		V204.102z"/>
	<path clip-path="url(#SVGID_2_)" fill="#FFFFFF" d="M134.372,177.298c0-1.425,1.112-2.535,2.537-2.535
		c1.423,0,2.536,1.11,2.536,2.535c0,1.428-1.113,2.538-2.536,2.538C135.484,179.836,134.372,178.726,134.372,177.298
		 M131.923,204.102c1.869,0,3.383-0.398,3.383-3.294v-12.153c0-2.671-2.049-2.806-3.383-2.896v-0.755l6.857-1.067v16.872
		c0,2.896,1.514,3.294,3.383,3.294v0.757h-10.24V204.102z"/>
	<path clip-path="url(#SVGID_2_)" fill="#FFFFFF" d="M142.169,204.102c1.869,0,3.382-0.398,3.382-3.294v-22.172
		c0-2.626-2.047-2.763-3.382-2.893v-0.758l6.855-1.068v26.891c0,2.896,1.514,3.294,3.384,3.294v0.757h-10.239V204.102z"/>
	<path clip-path="url(#SVGID_2_)" fill="#FFFFFF" d="M162.829,203.658c3.604,0,4.632-5.256,4.632-9.04
		c0-4.226-1.205-9.036-4.632-9.036c-3.785,0-4.81,5.3-4.81,9.036C158.02,198.494,158.732,203.658,162.829,203.658 M167.461,202.013
		h-0.09c-0.4,1.2-2.629,3.295-5.121,3.295c-6.19,0-8.192-5.255-8.192-10.689c0-5.431,2.002-10.682,8.192-10.682
		c2.805,0,4.498,2.181,5.121,3.427h0.09v-8.728c0-2.627-2.095-2.762-3.385-2.893v-0.758l6.854-1.069v26.671
		c0,2.673,2.049,2.805,3.388,2.894v0.757l-6.857,1.07V202.013z"/>
	<path clip-path="url(#SVGID_2_)" fill="#FFFFFF" d="M174.632,204.102c1.872,0,3.386-0.398,3.386-3.294v-12.153
		c0-2.671-2.049-2.806-3.386-2.896v-0.755l6.857-1.067v4.764h0.089c0.846-2.226,2.403-4.764,5.788-4.764
		c0.98,0,2.227,0.711,2.227,2.048c0,1.288-0.937,2.093-2.138,2.093c-1.337,0-1.915-1.072-2.536-1.072
		c-0.805,0-3.43,1.782-3.43,7.082v6.722c0,2.896,1.512,3.294,3.382,3.294v0.757h-10.239V204.102z"/>
	<path clip-path="url(#SVGID_2_)" fill="#FFFFFF" d="M201.975,190.835c0-2.357-0.801-5.432-4.229-5.432
		c-3.387,0-4.766,3.783-4.766,5.432H201.975z M205.358,204.506c-1.067,0.4-2.58,0.801-5.299,0.801
		c-6.899,0-10.775-3.783-10.775-11.264c0-6.504,2.628-10.107,9.041-10.107c4.005,0,7.613,2.225,7.613,7.389v0.981H192.98
		c0,3.741,1.826,11.354,9.261,11.354c1.026,0,2.227-0.133,3.117-0.58V204.506z"/>
	<path clip-path="url(#SVGID_2_)" fill="#FFFFFF" d="M206.919,204.102c1.87,0,3.385-0.398,3.385-3.294v-12.153
		c0-2.671-2.091-2.806-3.385-2.896v-0.755l6.859-1.067v5.875h0.087c0.624-1.646,2.629-5.875,7.039-5.875
		c4.715,0,5.163,2.579,5.163,6.722v10.15c0,2.896,1.515,3.294,3.385,3.294v0.757h-10.241v-0.757c1.868,0,3.383-0.398,3.383-3.294
		v-9.17c0-3.828-0.046-5.566-2.983-5.566c-2.628,0-5.832,5.033-5.832,9.263v5.474c0,2.896,1.515,3.294,3.383,3.294v0.757h-10.242
		V204.102z"/>
</g>
</svg>
